<svg xmlns="http://www.w3.org/2000/svg" width="100" height="100" viewBox="0 0 100 100"><g transform="translate(-136 -353)"><path d="M50,0A50,50,0,1,1,0,50,50,50,0,0,1,50,0Z" transform="translate(136 353)" fill="#1a0000"/><path d="M168-97a49.691,49.691,0,0,1-28.642-9.011,50.229,50.229,0,0,1-10.722-10.155A49.885,49.885,0,0,1,121.3-129.1,49.928,49.928,0,0,0,147-122a50.057,50.057,0,0,0,50-50,49.792,49.792,0,0,0-3.3-17.9A50.314,50.314,0,0,1,211.31-172a49.74,49.74,0,0,1,4.941,11.844A50.135,50.135,0,0,1,218-147a49.686,49.686,0,0,1-3.929,19.462,49.833,49.833,0,0,1-10.715,15.893,49.834,49.834,0,0,1-15.893,10.715A49.686,49.686,0,0,1,168-97Z" transform="translate(18 550)" fill="#fff5ee"/></g></svg>