<svg xmlns="http://www.w3.org/2000/svg" width="26.292" height="26.3" viewBox="0 0 26.292 26.3"><g transform="translate(30 -1.85) rotate(90)" fill="none"><path d="M12.317,5.367a3,3,0,0,1,5.367,0L24.152,18.3l3.677,7.355A3,3,0,0,1,25.146,30H4.854a3,3,0,0,1-2.683-4.342Z" stroke="none"/><path d="M 15.00000190734863 4.708198547363281 C 14.22601222991943 4.708198547363281 13.55728149414063 5.121500015258789 13.21115112304688 5.81376838684082 L 3.065252304077148 26.10556983947754 C 2.752992630004883 26.73007965087891 2.785722732543945 27.45751953125 3.152801513671875 28.05146026611328 C 3.519882202148438 28.64540863037109 4.155881881713867 29 4.854101181030273 29 L 25.14590072631836 29 C 25.8441219329834 29 26.48012161254883 28.64540863037109 26.84720230102539 28.05146026611328 C 27.21428108215332 27.45751953125 27.24701118469238 26.73007965087891 26.93475151062012 26.10556983947754 L 23.25733184814453 18.75074005126953 L 16.78885269165039 5.813779830932617 C 16.44271087646484 5.121500015258789 15.77398204803467 4.708198547363281 15.00000190734863 4.708198547363281 M 15.00000190734863 3.70820426940918 C 16.06525039672852 3.70820426940918 17.13049697875977 4.260990142822266 17.68328094482422 5.366559982299805 L 24.15176200866699 18.30352783203125 L 27.82918167114258 25.65835952758789 C 28.8265323638916 27.6530590057373 27.37604141235352 30 25.14590072631836 30 L 4.854101181030273 30 C 2.623950958251953 30 1.173471450805664 27.6530590057373 2.170822143554688 25.65835952758789 L 12.31672096252441 5.366559982299805 C 12.8695068359375 4.260990142822266 13.93475532531738 3.70820426940918 15.00000190734863 3.70820426940918 Z" stroke="none" fill="#f20e0e"/></g></svg>