<svg xmlns="http://www.w3.org/2000/svg" width="96.702" height="92.897" viewBox="0 0 96.702 92.897"><path d="M168-97a49.691,49.691,0,0,1-28.642-9.011,50.229,50.229,0,0,1-10.722-10.155A49.885,49.885,0,0,1,121.3-129.1a49.748,49.748,0,0,0,12.143,5.242A50.1,50.1,0,0,0,147-122a49.688,49.688,0,0,0,19.463-3.929,49.834,49.834,0,0,0,15.893-10.715,49.833,49.833,0,0,0,10.715-15.893A49.686,49.686,0,0,0,197-172a49.792,49.792,0,0,0-3.3-17.9A50.314,50.314,0,0,1,211.31-172a49.74,49.74,0,0,1,4.941,11.844A50.135,50.135,0,0,1,218-147a49.686,49.686,0,0,1-3.929,19.462,49.833,49.833,0,0,1-10.715,15.893,49.834,49.834,0,0,1-15.893,10.715A49.686,49.686,0,0,1,168-97Z" transform="translate(-121.298 189.897)" fill="#fff5ee"/></svg>